<svg id="Layer_1" data-name="Layer 1" xmlns="http://www.w3.org/2000/svg" xmlns:xlink="http://www.w3.org/1999/xlink" viewBox="0 0 1500 1000"><defs><style>.cls-1{fill:none;}.cls-2{clip-path:url(#clip-path);}.cls-3{fill:#dc1f26;}.cls-4{fill:#1f98c4;}.cls-5{fill:#e11d38;}.cls-6{fill:#1baf66;}.cls-7{fill:#fff;}</style><clipPath id="clip-path"><rect class="cls-1" width="1500" height="1000"/></clipPath></defs><title>Flag-of-Azerbaijani</title><g class="cls-2"><rect class="cls-3" x="-78.43" y="-100" width="1656.86" height="1200"/><rect class="cls-4" x="-17.37" y="-8.03" width="1534.73" height="338.69"/><rect class="cls-5" x="-17.37" y="330.66" width="1534.73" height="338.69"/><rect class="cls-6" x="-17.37" y="669.35" width="1534.73" height="338.69"/><polygon class="cls-7" points="905.76 501.58 927.01 479.24 900.99 476.63 906.83 452.49 880.11 464.07 866.54 439.54 857.02 460.89 834.71 447 838.01 478.94 809.69 484.26 825.85 498.57 807.83 513.73 839.02 520.69 835.02 551.6 854.96 540.11 863.34 560.47 878.3 534.83 907.52 548.5 902.23 524.14 924.53 522.62 905.76 501.58"/><path class="cls-7" d="M867,588.61C839.45,630.82,792,658.4,734.17,660.06,646.47,662.58,573,588.75,573,499c0-87.63,80.6-163.48,161.18-158.87,50.56,2.88,97.09,27.38,126.54,65.16-24.56-26-59.84-42.13-101.22-42.13-76.3,0-138.12,61.39-138.12,137s61.89,141.48,138.12,139.29C804.55,638.13,842.4,618.84,867,588.61Z"/></g></svg>